name ../VV_Laxity/vv_60.mot
datacolumns  10
datarows 23
range   7.00000000 7.22000000
cursor 1.0 1.0 0.0
keys m_key
wrap
enforce_loops no
enforce_constraints no
calc_derivatives -1.000000
event_color 0.000000 0.000000 0.000000
endheader
            time femur_r_force_vx femur_r_force_vy femur_r_force_vz femur_r_force_px femur_r_force_py femur_r_force_pz femur_r_torque_x femur_r_torque_y femur_r_torque_z 
      7.00000000       0.00000000       0.00000000       0.00000000      -0.06140863      -0.48102942       0.00000000      -4.49283127       7.78181203       0.00000000 
      7.01000000       0.00000000       0.00000000       0.00000000      -0.06140863      -0.48102942       0.00000000      -4.50033387       7.79480691       0.00000000 
      7.02000000       0.00000000       0.00000000       0.00000000      -0.06140863      -0.48102942       0.00000000      -4.50778673       7.80771565       0.00000000 
      7.03000000       0.00000000       0.00000000       0.00000000      -0.06140863      -0.48102942       0.00000000      -4.51518966       7.82053790       0.00000000 
      7.04000000       0.00000000       0.00000000       0.00000000      -0.06140863      -0.48102942       0.00000000      -4.52254249       7.83327337       0.00000000 
      7.05000000       0.00000000       0.00000000       0.00000000      -0.06140863      -0.48102942       0.00000000      -4.52984501       7.84592172       0.00000000 
      7.06000000       0.00000000       0.00000000       0.00000000      -0.06140863      -0.48102942       0.00000000      -4.53709707       7.85848264       0.00000000 
      7.07000000       0.00000000       0.00000000       0.00000000      -0.06140863      -0.48102942       0.00000000      -4.54429846       7.87095582       0.00000000 
      7.08000000       0.00000000       0.00000000       0.00000000      -0.06140863      -0.48102942       0.00000000      -4.55144903       7.88334096       0.00000000 
      7.09000000       0.00000000       0.00000000       0.00000000      -0.06140863      -0.48102942       0.00000000      -4.55854858       7.89563774       0.00000000 
      7.10000000       0.00000000       0.00000000       0.00000000      -0.06140863      -0.48102942       0.00000000      -4.56559694       7.90784586       0.00000000 
      7.11000000       0.00000000       0.00000000       0.00000000      -0.06140863      -0.48102942       0.00000000      -4.57259393       7.91996501       0.00000000 
      7.12000000       0.00000000       0.00000000       0.00000000      -0.06140863      -0.48102942       0.00000000      -4.57953939       7.93199490       0.00000000 
      7.13000000       0.00000000       0.00000000       0.00000000      -0.06140863      -0.48102942       0.00000000      -4.58643313       7.94393521       0.00000000 
      7.14000000       0.00000000       0.00000000       0.00000000      -0.06140863      -0.48102942       0.00000000      -4.59327500       7.95578567       0.00000000 
      7.15000000       0.00000000       0.00000000       0.00000000      -0.06140863      -0.48102942       0.00000000      -4.60006481       7.96754597       0.00000000 
      7.16000000       0.00000000       0.00000000       0.00000000      -0.06140863      -0.48102942       0.00000000      -4.60680240       7.97921581       0.00000000 
      7.17000000       0.00000000       0.00000000       0.00000000      -0.06140863      -0.48102942       0.00000000      -4.61348760       7.99079492       0.00000000 
      7.18000000       0.00000000       0.00000000       0.00000000      -0.06140863      -0.48102942       0.00000000      -4.62012024       8.00228299       0.00000000 
      7.19000000       0.00000000       0.00000000       0.00000000      -0.06140863      -0.48102942       0.00000000      -4.62670016       8.01367976       0.00000000 
      7.20000000       0.00000000       0.00000000       0.00000000      -0.06140863      -0.48102942       0.00000000      -4.63322720       8.02498492       0.00000000 
      7.21000000       0.00000000       0.00000000       0.00000000      -0.06140863      -0.48102942       0.00000000      -4.63970120       8.03619821       0.00000000 
      7.22000000       0.00000000       0.00000000       0.00000000      -0.06140863      -0.48102942       0.00000000      -4.64612198       8.04731933       0.00000000 
